<?xml version="1.0" encoding="utf-8" ?>
<svg xmlns="http://www.w3.org/2000/svg" xmlns:xlink="http://www.w3.org/1999/xlink" width="2336" height="1168">
	<clipPath id="cl_9">
		<rect y="6.1035156e-05" width="2336.4973" height="1168.2488"/>
	</clipPath>
	<g clip-path="url(#cl_9)">
		<path fill="#FF5819" transform="matrix(2.28174 0 0 2.28174 0 -584.124)" d="M427.518 360.265C419.09 358.337 411.212 355.409 404.359 350.002Q403.476 349.308 402.628 348.57Q401.781 347.833 400.971 347.054Q400.161 346.275 399.391 345.458Q398.621 344.64 397.892 343.785Q397.163 342.929 396.478 342.039Q395.793 341.149 395.153 340.226Q394.513 339.302 393.919 338.349Q393.325 337.395 392.78 336.413Q392.235 335.43 391.739 334.422Q391.243 333.414 390.797 332.383Q390.352 331.351 389.959 330.299Q389.565 329.247 389.224 328.176Q388.884 327.106 388.596 326.02Q388.309 324.933 388.076 323.834Q387.844 322.735 387.666 321.626Q387.488 320.517 387.365 319.4Q387.226 318.256 387.144 317.107Q387.062 315.958 387.037 314.806Q387.012 313.654 387.043 312.502Q387.075 311.35 387.164 310.202Q387.252 309.053 387.397 307.91Q387.542 306.767 387.744 305.633Q387.945 304.498 388.202 303.375Q388.46 302.252 388.772 301.143Q389.084 300.034 389.451 298.941Q389.817 297.849 390.238 296.776Q390.658 295.704 391.13 294.653Q391.603 293.602 392.127 292.576Q392.651 291.55 393.225 290.551Q393.798 289.552 394.421 288.582Q395.044 287.613 395.713 286.675Q396.383 285.737 397.098 284.834C405.294 274.651 417.23 269.118 430.088 267.682C438.882 266.271 449.003 268.911 456.717 273.119C467.232 278.856 474.554 288.509 477.869 299.968Q478.204 301.122 478.483 302.291Q478.761 303.46 478.981 304.641Q479.202 305.822 479.364 307.013Q479.526 308.203 479.629 309.4Q479.732 310.597 479.777 311.798Q479.821 312.999 479.806 314.2Q479.791 315.402 479.717 316.601Q479.643 317.8 479.51 318.995Q479.377 320.189 479.186 321.375Q478.995 322.561 478.745 323.737Q478.495 324.912 478.188 326.074Q477.881 327.235 477.517 328.38Q477.153 329.525 476.734 330.651Q476.314 331.777 475.839 332.881Q475.365 333.985 474.836 335.064Q474.308 336.143 473.727 337.195C466.218 350.594 453.254 356.441 439.029 360.392C438.891 367.601 438.507 374.782 438.545 382C438.581 388.905 439.11 396.01 438.616 402.888C477.231 391.075 546.414 389.936 584.669 402.346C584.108 388.231 584.494 373.959 584.46 359.826C576.301 358.848 568.885 356.073 562.162 351.296Q561.22 350.623 560.313 349.905Q559.406 349.186 558.536 348.423Q557.666 347.661 556.834 346.856Q556.003 346.051 555.212 345.206Q554.422 344.36 553.674 343.477Q552.927 342.594 552.224 341.674Q551.521 340.755 550.865 339.802Q550.209 338.849 549.601 337.864Q548.992 336.88 548.434 335.866Q547.875 334.853 547.367 333.813Q546.86 332.773 546.404 331.709Q545.949 330.645 545.547 329.56Q545.145 328.475 544.797 327.372Q544.449 326.268 544.156 325.148Q543.864 324.029 543.627 322.896Q543.39 321.763 543.21 320.62Q543.039 319.515 542.921 318.403Q542.804 317.291 542.742 316.175Q542.679 315.059 542.671 313.941Q542.663 312.823 542.71 311.706Q542.757 310.589 542.858 309.475Q542.96 308.362 543.116 307.255Q543.272 306.148 543.482 305.049Q543.692 303.951 543.955 302.865Q544.219 301.778 544.535 300.706Q544.851 299.633 545.22 298.578Q545.588 297.522 546.008 296.486Q546.428 295.45 546.898 294.435Q547.368 293.421 547.887 292.431Q548.406 291.44 548.973 290.477Q549.54 289.513 550.153 288.578Q550.767 287.644 551.425 286.74C558.995 276.385 570.758 269.802 583.39 268.016Q584.5 267.862 585.616 267.762Q586.733 267.662 587.852 267.617Q588.972 267.572 590.093 267.582Q591.213 267.591 592.332 267.656Q593.451 267.72 594.565 267.839Q595.68 267.958 596.787 268.131Q597.894 268.304 598.992 268.531Q600.089 268.758 601.174 269.038Q602.259 269.318 603.329 269.651Q604.399 269.984 605.452 270.369Q606.504 270.754 607.537 271.19Q608.569 271.625 609.579 272.111Q610.589 272.596 611.574 273.131Q612.559 273.665 613.517 274.247Q614.475 274.829 615.403 275.457Q616.332 276.085 617.228 276.757C626.806 284.038 633.795 295.701 635.356 307.637Q635.503 308.798 635.592 309.965Q635.681 311.132 635.712 312.302Q635.743 313.472 635.716 314.642Q635.689 315.812 635.604 316.979Q635.519 318.147 635.376 319.308Q635.233 320.47 635.032 321.623Q634.832 322.776 634.575 323.918Q634.317 325.059 634.003 326.187Q633.689 327.314 633.32 328.425Q632.951 329.535 632.527 330.626Q632.102 331.717 631.625 332.785Q631.147 333.854 630.617 334.897Q630.087 335.941 629.505 336.956Q628.924 337.972 628.293 338.958Q627.662 339.944 626.983 340.897Q626.304 341.85 625.578 342.768C618.813 351.445 607.772 357.925 596.842 359.323C597.071 367.491 596.737 375.745 596.772 383.927C596.802 390.771 597.429 398.166 596.554 404.945C625.178 411.337 661.165 431.017 681.915 451.581C684.545 454.188 687.416 456.825 689.551 459.858C698.43 456.844 706.104 452.833 713.934 447.745C695.559 434.451 682.421 417.966 677.086 395.605C671.588 372.558 677.328 351.199 689.426 331.411C694.269 335.405 698.335 341.106 702.488 345.843C712.117 356.826 730.01 377.484 742.15 384.071Q743.248 384.67 744.407 385.14Q745.566 385.611 746.771 385.945Q747.976 386.28 749.212 386.474Q750.447 386.669 751.697 386.721C758.242 387.013 764.387 384.581 769.121 380.087Q769.564 379.672 769.986 379.234Q770.407 378.797 770.805 378.339Q771.204 377.88 771.578 377.402Q771.952 376.923 772.301 376.426Q772.65 375.929 772.973 375.415Q773.296 374.901 773.592 374.37Q773.888 373.84 774.156 373.295Q774.425 372.75 774.665 372.192Q774.905 371.634 775.116 371.065Q775.327 370.495 775.508 369.916Q775.689 369.336 775.84 368.748Q775.992 368.159 776.112 367.564Q776.233 366.969 776.323 366.368Q776.413 365.768 776.472 365.163Q776.53 364.559 776.558 363.952Q776.586 363.345 776.582 362.738C776.585 357.851 775.312 353.455 772.754 349.297C767.129 340.153 757.523 332.827 749.78 325.473Q737.19 313.563 725.063 301.182C735.651 297.548 747.264 295.602 758.463 296.061C781.345 296.997 801.28 306.508 816.66 323.421C831.758 340.023 838.099 361.836 837.02 384.001C835.989 405.179 825.681 425.538 809.912 439.57C790.421 456.915 768.118 460.244 742.916 458.857C732.144 469.301 720.864 478.321 708.258 486.459C711.587 492.462 714.543 499.069 716.127 505.765C719.78 506.871 723.476 508.046 727.037 509.425C748.436 517.713 764.77 534.647 773.906 555.539Q774.32 556.49 774.711 557.451Q775.102 558.411 775.468 559.381Q775.835 560.352 776.177 561.331Q776.52 562.31 776.838 563.297Q777.156 564.284 777.449 565.279Q777.743 566.274 778.011 567.275Q778.28 568.277 778.523 569.285Q778.767 570.293 778.985 571.307Q779.204 572.321 779.397 573.34Q779.59 574.359 779.758 575.383Q779.926 576.406 780.068 577.433Q780.211 578.461 780.327 579.491Q780.444 580.522 780.535 581.555Q780.626 582.588 780.692 583.623Q780.757 584.658 780.797 585.695Q780.837 586.731 780.851 587.768Q780.865 588.805 780.853 589.842Q780.841 590.879 780.804 591.916Q780.766 592.952 780.703 593.987Q780.639 595.022 780.55 596.056Q780.461 597.089 780.347 598.12Q780.232 599.151 780.092 600.178Q779.952 601.206 779.786 602.23Q779.62 603.254 779.429 604.273Q779.238 605.292 779.022 606.307Q778.805 607.321 778.564 608.33Q778.322 609.338 778.056 610.34Q777.789 611.343 777.498 612.338Q777.207 613.334 776.891 614.321Q776.575 615.309 776.234 616.289Q775.894 617.269 775.529 618.24Q775.165 619.21 774.776 620.172C765.85 642.507 748.94 657.371 727.122 666.762C722.728 668.559 717.942 669.587 713.345 670.748C713.772 681.764 713.538 692.887 713.578 703.915L713.698 757.546C700.237 756.254 686.536 757.262 673.031 757.399L609.613 757.579L420.018 757.461C383.897 757.438 347.467 758.504 311.395 756.835C309.421 747.071 310.097 735.899 310.1 725.958L310.559 671.907C302.271 669.587 294.157 666.87 286.622 662.637Q285.696 662.122 284.784 661.584Q283.871 661.046 282.972 660.485Q282.074 659.924 281.189 659.341Q280.305 658.758 279.435 658.153Q278.566 657.548 277.712 656.921Q276.858 656.294 276.02 655.646Q275.182 654.998 274.36 654.329Q273.539 653.661 272.734 652.971Q271.93 652.282 271.143 651.573Q270.356 650.864 269.587 650.135Q268.818 649.406 268.068 648.659Q267.317 647.911 266.586 647.145Q265.854 646.378 265.142 645.594Q264.431 644.809 263.738 644.007Q263.046 643.205 262.375 642.386Q261.703 641.567 261.052 640.731Q260.401 639.895 259.771 639.043Q259.142 638.191 258.534 637.324Q257.925 636.457 257.339 635.574Q256.753 634.692 256.189 633.795Q255.625 632.898 255.084 631.988Q254.543 631.077 254.024 630.153Q253.506 629.229 253.011 628.292Q252.516 627.356 252.045 626.407Q251.574 625.458 251.127 624.498Q250.679 623.538 250.256 622.566Q249.833 621.595 249.435 620.614Q249.036 619.632 248.663 618.641Q248.289 617.65 247.94 616.649Q247.591 615.649 247.268 614.64Q246.944 613.632 246.646 612.615Q246.348 611.599 246.075 610.575Q245.803 609.589 245.555 608.597Q245.308 607.604 245.085 606.606Q244.862 605.608 244.664 604.605Q244.466 603.601 244.294 602.593Q244.121 601.585 243.973 600.573Q243.826 599.561 243.704 598.546Q243.581 597.53 243.484 596.512Q243.387 595.494 243.316 594.474Q243.244 593.453 243.198 592.432Q243.152 591.41 243.131 590.387Q243.111 589.365 243.116 588.342Q243.121 587.319 243.151 586.297Q243.181 585.275 243.237 584.253Q243.293 583.232 243.374 582.213Q243.455 581.193 243.562 580.176Q243.669 579.159 243.801 578.145Q243.933 577.13 244.09 576.12Q244.247 575.109 244.429 574.103Q244.612 573.096 244.819 572.095Q245.026 571.093 245.259 570.097Q245.491 569.101 245.748 568.111Q246.005 567.121 246.287 566.138Q246.568 565.155 246.874 564.179Q247.18 563.203 247.51 562.235Q247.841 561.267 248.195 560.308Q248.549 559.348 248.927 558.398Q249.305 557.448 249.707 556.507Q250.109 555.567 250.534 554.636Q250.958 553.706 251.406 552.787Q251.854 551.867 252.325 550.959Q252.796 550.051 253.289 549.155Q253.783 548.259 254.298 547.376C266.359 526.72 286.133 513.935 308.974 507.996C311.076 501.341 313.159 494.664 315.941 488.256C302.271 481.567 290.997 469.934 280.995 458.728C270.231 459.747 259.605 459.892 249.005 457.374Q248.04 457.139 247.082 456.881Q246.124 456.622 245.172 456.341Q244.22 456.059 243.275 455.754Q242.331 455.448 241.394 455.12Q240.457 454.792 239.528 454.441Q238.6 454.09 237.68 453.716Q236.76 453.342 235.85 452.946Q234.94 452.55 234.04 452.131Q233.14 451.713 232.25 451.272Q231.361 450.832 230.482 450.37Q229.603 449.907 228.736 449.424Q227.87 448.94 227.015 448.435Q226.16 447.931 225.318 447.405Q224.476 446.88 223.647 446.333Q222.818 445.787 222.002 445.221Q221.187 444.655 220.386 444.069Q219.585 443.483 218.798 442.877Q218.011 442.271 217.24 441.647Q216.468 441.022 215.713 440.378Q214.957 439.735 214.217 439.073Q213.477 438.411 212.753 437.732Q212.03 437.052 211.324 436.354Q210.617 435.657 209.928 434.943Q209.239 434.228 208.567 433.497Q207.896 432.766 207.243 432.018Q206.589 431.271 205.955 430.508Q205.32 429.744 204.704 428.966Q204.088 428.187 203.492 427.394Q202.895 426.6 202.318 425.792Q201.742 424.984 201.185 424.162Q200.628 423.341 200.091 422.505Q199.555 421.67 199.039 420.822Q198.499 419.922 197.982 419.008Q197.465 418.095 196.97 417.169Q196.475 416.244 196.003 415.306Q195.531 414.368 195.083 413.419Q194.634 412.47 194.209 411.511Q193.783 410.551 193.382 409.581Q192.98 408.612 192.603 407.632Q192.225 406.653 191.871 405.664Q191.518 404.676 191.189 403.679Q190.86 402.682 190.555 401.678Q190.251 400.673 189.971 399.662Q189.691 398.65 189.437 397.632Q189.182 396.613 188.952 395.589Q188.722 394.565 188.518 393.535Q188.313 392.506 188.134 391.472Q187.955 390.437 187.801 389.399Q187.648 388.361 187.52 387.319Q187.392 386.277 187.289 385.232Q187.187 384.188 187.11 383.141Q187.033 382.094 186.982 381.045Q186.931 379.997 186.906 378.948Q186.88 377.898 186.881 376.849Q186.881 375.799 186.908 374.75Q186.934 373.7 186.986 372.652Q187.038 371.604 187.116 370.557Q187.193 369.51 187.297 368.465Q187.4 367.421 187.53 366.379Q187.659 365.337 187.813 364.299Q187.968 363.261 188.148 362.227Q188.328 361.193 188.533 360.163Q188.739 359.134 188.97 358.11Q189.2 357.086 189.456 356.068C194.758 334.829 208.772 317.225 227.512 306.13C250.171 292.716 274.339 293.762 299.031 300.146C290.094 310.603 279.625 320.148 269.572 329.533C262.813 335.843 255.58 341.763 250.239 349.396C247.65 353.094 245.881 356.867 245.464 361.428Q245.406 362.011 245.376 362.595Q245.347 363.18 245.348 363.766Q245.348 364.351 245.378 364.936Q245.407 365.52 245.466 366.103Q245.525 366.685 245.613 367.264Q245.702 367.843 245.819 368.417Q245.936 368.99 246.082 369.557Q246.227 370.124 246.402 370.683Q246.576 371.242 246.778 371.792Q246.979 372.341 247.209 372.88Q247.438 373.419 247.694 373.945Q247.95 374.472 248.232 374.985Q248.515 375.498 248.822 375.996Q249.13 376.494 249.462 376.976Q249.794 377.458 250.15 377.923Q250.506 378.388 250.885 378.834C255.376 384.042 261.932 387.572 268.818 388.001C287.342 389.152 302.402 366.905 313.878 355.091C321.234 347.518 328.886 340.454 336.787 333.452Q337.633 334.713 338.422 336.01C349.165 353.701 352.98 376.598 347.999 396.747C343.334 415.614 328.536 436.717 311.792 446.719C319.069 453.332 326.017 456.153 335.476 458.551C351.438 436.436 401.072 411.439 427.463 405.672C426.276 392.646 427.387 373.909 427.518 360.265ZM432.867 286.783Q432.213 286.799 431.561 286.846Q430.909 286.894 430.26 286.973Q429.611 287.053 428.966 287.165Q428.322 287.276 427.683 287.419Q427.045 287.562 426.415 287.736Q425.785 287.91 425.164 288.115Q424.543 288.32 423.932 288.555Q423.322 288.79 422.724 289.055Q422.126 289.32 421.542 289.614Q420.958 289.908 420.389 290.23Q419.82 290.553 419.267 290.902Q418.715 291.252 418.18 291.629Q417.645 292.005 417.13 292.408Q416.614 292.81 416.119 293.238Q415.624 293.665 415.15 294.116Q414.677 294.567 414.226 295.041Q413.775 295.514 413.348 296.01Q412.921 296.505 412.519 297.021Q412.117 297.537 411.741 298.072Q411.365 298.607 411.015 299.159Q410.665 299.712 410.343 300.281Q410.021 300.85 409.728 301.435Q409.434 302.019 409.17 302.617Q408.905 303.215 408.67 303.826Q408.435 304.436 408.231 305.057Q408.026 305.678 407.853 306.309Q407.679 306.939 407.536 307.578Q407.394 308.216 407.282 308.86Q407.171 309.505 407.092 310.154Q407.013 310.803 406.966 311.455Q406.918 312.108 406.903 312.761Q406.888 313.415 406.905 314.069Q406.922 314.723 406.971 315.375Q407.02 316.027 407.101 316.676Q407.182 317.325 407.295 317.969Q407.408 318.613 407.552 319.251Q407.697 319.889 407.872 320.519Q408.048 321.149 408.254 321.77Q408.46 322.39 408.697 323Q408.933 323.61 409.199 324.207Q409.466 324.804 409.761 325.388Q410.056 325.971 410.38 326.54Q410.703 327.108 411.054 327.66Q411.405 328.212 411.783 328.745Q412.161 329.279 412.565 329.794Q412.968 330.309 413.396 330.803Q413.825 331.297 414.277 331.77Q414.729 332.242 415.204 332.692Q415.678 333.142 416.175 333.567Q416.671 333.993 417.188 334.394Q417.704 334.795 418.24 335.17Q418.776 335.546 419.329 335.894Q419.883 336.242 420.453 336.563Q421.023 336.884 421.608 337.176Q422.193 337.468 422.791 337.732Q423.39 337.995 424.001 338.228Q424.612 338.462 425.233 338.665Q425.855 338.868 426.486 339.041Q427.117 339.213 427.755 339.354Q428.394 339.495 429.038 339.605Q429.683 339.715 430.333 339.793Q430.982 339.87 431.634 339.916Q432.287 339.962 432.94 339.976Q433.594 339.989 434.248 339.971Q434.9 339.953 435.55 339.902Q436.2 339.852 436.847 339.77Q437.494 339.688 438.136 339.574Q438.779 339.461 439.414 339.316Q440.05 339.171 440.678 338.995Q441.306 338.819 441.925 338.612Q442.543 338.405 443.151 338.169Q443.759 337.932 444.354 337.666Q444.95 337.4 445.531 337.105Q446.113 336.81 446.679 336.487Q447.246 336.164 447.796 335.813Q448.346 335.463 448.878 335.086Q449.41 334.709 449.923 334.306Q450.436 333.904 450.929 333.476Q451.421 333.049 451.893 332.598Q452.364 332.147 452.812 331.674Q453.261 331.2 453.685 330.706Q454.11 330.211 454.51 329.696Q454.91 329.18 455.284 328.646Q455.659 328.112 456.006 327.561Q456.354 327.009 456.674 326.441Q456.994 325.873 457.286 325.289Q457.578 324.706 457.842 324.11Q458.105 323.513 458.338 322.904Q458.572 322.295 458.775 321.675Q458.978 321.056 459.151 320.427Q459.324 319.798 459.466 319.162Q459.607 318.525 459.718 317.882Q459.828 317.24 459.907 316.592Q459.986 315.945 460.033 315.294Q460.08 314.644 460.095 313.992Q460.11 313.34 460.093 312.688Q460.076 312.036 460.027 311.386Q459.978 310.735 459.898 310.088Q459.817 309.441 459.705 308.799Q459.592 308.156 459.449 307.52Q459.305 306.884 459.131 306.256Q458.956 305.627 458.751 305.008Q458.546 304.389 458.31 303.781Q458.075 303.173 457.81 302.577Q457.546 301.981 457.252 301.399Q456.958 300.816 456.636 300.249Q456.315 299.682 455.965 299.131Q455.616 298.58 455.24 298.047Q454.864 297.514 454.463 297.001Q454.061 296.487 453.635 295.993Q453.209 295.499 452.759 295.027Q452.309 294.555 451.837 294.106Q451.364 293.656 450.87 293.23Q450.376 292.804 449.862 292.403Q449.348 292.002 448.815 291.627Q448.282 291.251 447.731 290.902Q447.18 290.553 446.612 290.232Q446.045 289.91 445.462 289.617Q444.88 289.324 444.284 289.06Q443.688 288.795 443.079 288.56Q442.471 288.325 441.852 288.121Q441.232 287.916 440.604 287.742Q439.975 287.568 439.339 287.424Q438.703 287.281 438.06 287.169Q437.418 287.058 436.771 286.977Q436.124 286.897 435.473 286.849Q434.823 286.8 434.171 286.784Q433.519 286.767 432.867 286.783ZM585.257 287.336Q584.615 287.427 583.978 287.55Q583.341 287.673 582.711 287.826Q582.081 287.98 581.459 288.165Q580.838 288.349 580.226 288.564Q579.614 288.779 579.013 289.024Q578.413 289.268 577.825 289.542Q577.237 289.816 576.663 290.118Q576.09 290.421 575.531 290.751Q574.973 291.081 574.432 291.438Q573.891 291.796 573.368 292.179Q572.844 292.562 572.341 292.971Q571.837 293.38 571.354 293.812Q570.871 294.245 570.41 294.701Q569.949 295.157 569.511 295.635Q569.073 296.114 568.659 296.613Q568.244 297.112 567.855 297.63Q567.466 298.149 567.103 298.687Q566.74 299.224 566.403 299.778Q566.067 300.333 565.758 300.903Q565.45 301.473 565.169 302.058Q564.889 302.643 564.637 303.241Q564.386 303.839 564.165 304.448Q563.943 305.058 563.751 305.677Q563.56 306.297 563.399 306.925Q563.239 307.554 563.109 308.189Q562.979 308.824 562.881 309.465Q562.782 310.106 562.716 310.752Q562.649 311.397 562.614 312.044Q562.579 312.692 562.576 313.34Q562.572 313.989 562.601 314.637Q562.63 315.285 562.69 315.93Q562.751 316.576 562.843 317.218Q562.935 317.86 563.059 318.497Q563.182 319.133 563.337 319.763Q563.491 320.393 563.677 321.014Q563.862 321.636 564.078 322.247Q564.293 322.859 564.539 323.459Q564.784 324.059 565.059 324.647Q565.334 325.234 565.637 325.808Q565.94 326.381 566.271 326.939Q566.602 327.496 566.96 328.037Q567.318 328.578 567.702 329.101Q568.086 329.623 568.495 330.126Q568.904 330.629 569.338 331.112Q569.771 331.594 570.228 332.055Q570.684 332.515 571.163 332.953Q571.642 333.39 572.141 333.804Q572.641 334.217 573.16 334.606Q573.68 334.994 574.217 335.356Q574.755 335.719 575.31 336.055Q575.865 336.39 576.436 336.698Q577.006 337.006 577.592 337.286Q578.177 337.565 578.775 337.816Q579.373 338.066 579.983 338.287Q580.593 338.508 581.212 338.699Q581.832 338.889 582.461 339.049Q583.089 339.209 583.725 339.338Q584.36 339.467 585.002 339.564Q585.643 339.662 586.288 339.728Q586.933 339.794 587.581 339.828Q588.228 339.862 588.877 339.864Q589.525 339.867 590.173 339.837Q590.821 339.808 591.467 339.746Q592.112 339.685 592.754 339.592Q593.395 339.499 594.03 339.375Q594.666 339.251 595.294 339.096Q595.923 338.941 596.543 338.755Q597.163 338.569 597.774 338.354Q598.384 338.138 598.983 337.892Q599.582 337.646 600.169 337.372Q600.755 337.097 601.327 336.794Q601.899 336.491 602.456 336.16Q603.012 335.83 603.552 335.472Q604.092 335.114 604.613 334.731Q605.135 334.347 605.637 333.938Q606.139 333.529 606.62 333.096Q607.102 332.664 607.561 332.208Q608.021 331.752 608.458 331.274Q608.894 330.796 609.307 330.297Q609.72 329.798 610.108 329.28Q610.495 328.761 610.857 328.224Q611.219 327.688 611.554 327.134Q611.89 326.58 612.197 326.01Q612.505 325.44 612.784 324.856Q613.063 324.272 613.314 323.675Q613.564 323.078 613.785 322.469Q614.006 321.861 614.196 321.242Q614.387 320.623 614.547 319.996Q614.707 319.369 614.836 318.734Q614.965 318.1 615.063 317.46Q615.161 316.82 615.228 316.176Q615.294 315.532 615.329 314.885Q615.363 314.239 615.366 313.591Q615.369 312.944 615.341 312.297Q615.312 311.65 615.251 311.006Q615.191 310.361 615.099 309.72Q615.007 309.079 614.884 308.444Q614.761 307.808 614.606 307.179Q614.452 306.55 614.267 305.93Q614.082 305.31 613.867 304.699Q613.652 304.088 613.407 303.489Q613.162 302.89 612.889 302.303Q612.615 301.716 612.312 301.144Q612.01 300.571 611.68 300.014Q611.35 299.457 610.993 298.917Q610.636 298.377 610.253 297.855Q609.87 297.333 609.462 296.83Q609.054 296.328 608.622 295.846Q608.19 295.364 607.734 294.904Q607.279 294.443 606.801 294.006Q606.324 293.569 605.826 293.155Q605.328 292.742 604.81 292.353Q604.292 291.965 603.755 291.602Q603.219 291.24 602.666 290.904Q602.112 290.568 601.543 290.259Q600.973 289.951 600.39 289.671Q599.806 289.391 599.209 289.14Q598.613 288.889 598.004 288.667Q597.396 288.446 596.777 288.254Q596.159 288.063 595.532 287.902Q594.905 287.741 594.271 287.611Q593.636 287.481 592.996 287.382Q592.357 287.283 591.713 287.216Q591.069 287.149 590.422 287.113Q589.776 287.078 589.128 287.074Q588.481 287.07 587.834 287.098Q587.187 287.126 586.543 287.185Q585.898 287.245 585.257 287.336ZM464.714 453.417C461.958 455.006 460.08 456.623 459.234 459.811C457.648 465.793 461.485 472.626 464.569 477.556C472.465 490.179 484.617 499.064 499.191 502.412C513.537 505.708 529.63 503.369 542.12 495.453C551.13 489.744 558.426 480.965 562.661 471.214C564.224 466.841 565.854 461.817 563.631 457.394C562.964 456.066 562.321 455.36 561.118 454.512C559.587 454.269 558.709 454.281 557.4 455.193C550.777 459.806 548.133 471.162 543.436 477.727C542.15 479.525 539.838 481.191 538.058 482.486C528.693 489.303 517.23 492.006 505.775 490.485Q504.762 490.354 503.757 490.175Q502.752 489.995 501.756 489.766Q500.761 489.537 499.778 489.259Q498.796 488.982 497.828 488.657Q496.859 488.332 495.909 487.96Q494.958 487.587 494.026 487.169Q493.094 486.751 492.184 486.287Q491.274 485.824 490.388 485.317Q489.502 484.809 488.641 484.259Q487.781 483.709 486.949 483.117Q486.116 482.526 485.314 481.894Q484.512 481.262 483.741 480.592Q482.971 479.922 482.234 479.215Q481.497 478.508 480.796 477.765Q480.094 477.023 479.43 476.247Q478.766 475.471 478.141 474.664C473.364 468.368 471.642 457.228 464.714 453.417ZM326.049 514.404C340.206 527.196 355.789 538.551 370.561 550.653L454.176 619.204Q475.277 635.902 495.708 653.414C501.035 657.996 507.195 662.612 511.72 667.963C521.936 658.068 533.475 649.228 544.448 640.181Q568.257 620.66 591.798 600.817C598.775 595.048 606.06 589.564 612.922 583.675Q635.777 564.989 658.376 545.994C670.978 535.583 683.826 525.505 696.391 515.037L422.189 514.626L357.784 514.597C347.42 514.644 336.284 516.121 326.049 514.404ZM706.17 516.935C671.861 544.073 638.505 572.468 604.735 600.283Q593.43 609.518 582.27 618.927C576.78 623.616 571.414 628.78 565.445 632.842C587.494 649.228 608.789 667.259 630.175 684.526L675.688 721.083C686.014 729.343 696.614 737.192 705.938 746.614C706.887 725.659 706.29 704.501 706.266 683.518L706.175 574.981L706.532 532.841C706.546 528.118 707.334 521.419 706.17 516.935ZM317.71 518.335C318.377 539.1 317.953 559.988 317.967 580.772L318.024 690.893C318.032 709.055 317.724 727.266 318.344 745.417C330.976 733.35 345.54 723.318 359.228 712.485L383.507 693.184C387.378 690.104 391.212 686.683 395.278 683.879Q411.614 670.422 428.223 657.303C438.276 649.508 449.211 642.292 457.963 633.002C449.58 624.16 439.572 616.463 430.069 608.86Q412.247 594.737 394.597 580.399L346.335 541.052C336.973 533.424 327.67 525.158 317.71 518.335ZM559.414 637.945L534.956 658.112C529.395 662.72 523.896 667.876 517.661 671.556C515.519 672.82 513.343 673.597 510.953 674.233C501.715 670.582 494.023 661.838 486.479 655.569L465.065 638.125Q419.304 673.921 374.091 710.405Q358.462 722.966 342.698 735.358C336.634 740.106 330.551 745.203 324.051 749.336Q376.463 749.735 428.875 749.407L611.461 749.486L669.236 749.415C679.169 749.419 689.596 748.875 699.482 749.705Q663.551 722.473 628.659 693.923C610.264 678.949 592.202 663.536 573.666 648.744C570.232 646.004 563.251 639.491 559.414 637.945Z"/>
		<path fill="#001D65" transform="matrix(2.28174 0 0 2.28174 0 -584.124)" d="M436.249 328.78Q435.739 328.883 435.223 328.952Q434.707 329.021 434.187 329.055Q433.668 329.09 433.147 329.091Q432.626 329.091 432.107 329.057Q431.587 329.024 431.071 328.956Q430.555 328.888 430.044 328.786Q429.534 328.684 429.031 328.549Q428.528 328.414 428.035 328.246Q427.543 328.078 427.062 327.877Q426.581 327.677 426.115 327.446Q425.649 327.214 425.199 326.953Q424.748 326.691 424.316 326.401Q423.885 326.11 423.473 325.791Q423.061 325.473 422.671 325.128Q422.281 324.783 421.915 324.413Q421.548 324.043 421.207 323.65Q420.866 323.257 420.551 322.842Q420.237 322.427 419.95 321.992Q419.664 321.558 419.406 321.105Q419.149 320.652 418.922 320.184Q418.695 319.715 418.5 319.233Q418.304 318.75 418.141 318.256Q417.977 317.762 417.847 317.258Q417.716 316.754 417.62 316.242Q417.523 315.73 417.46 315.214Q417.397 314.697 417.368 314.177Q417.339 313.657 417.344 313.137Q417.35 312.616 417.39 312.097Q417.429 311.578 417.503 311.062Q417.577 310.547 417.685 310.038Q417.792 309.528 417.933 309.027Q418.074 308.526 418.248 308.035Q418.422 307.544 418.627 307.066Q418.833 306.588 419.07 306.124Q419.306 305.66 419.573 305.213Q419.84 304.766 420.136 304.337Q420.431 303.909 420.755 303.5Q421.078 303.092 421.427 302.706Q421.777 302.32 422.151 301.958Q422.525 301.596 422.922 301.259Q423.319 300.923 423.737 300.613Q424.156 300.303 424.594 300.021Q425.032 299.74 425.487 299.488Q425.943 299.236 426.414 299.014Q426.885 298.793 427.37 298.603Q427.855 298.413 428.351 298.255Q428.847 298.097 429.353 297.973Q429.858 297.848 430.371 297.757Q430.75 297.69 431.132 297.641Q431.513 297.592 431.897 297.562Q432.28 297.532 432.665 297.521Q433.049 297.509 433.434 297.517Q433.819 297.524 434.203 297.55Q434.587 297.576 434.969 297.621Q435.351 297.666 435.73 297.729Q436.11 297.792 436.486 297.874Q436.862 297.956 437.233 298.056Q437.605 298.156 437.971 298.273Q438.338 298.391 438.698 298.527Q439.058 298.663 439.411 298.816Q439.764 298.969 440.109 299.139Q440.454 299.309 440.79 299.495Q441.127 299.682 441.454 299.885Q441.781 300.087 442.098 300.306Q442.414 300.524 442.72 300.758Q443.026 300.992 443.32 301.24Q443.614 301.488 443.895 301.751Q444.177 302.013 444.445 302.289Q444.713 302.564 444.968 302.853Q445.223 303.141 445.463 303.442Q445.703 303.742 445.929 304.054Q446.154 304.366 446.364 304.688Q446.574 305.011 446.768 305.343Q446.962 305.675 447.139 306.017Q447.317 306.358 447.478 306.707Q447.638 307.057 447.782 307.414Q447.925 307.771 448.051 308.135Q448.177 308.498 448.285 308.867Q448.393 309.237 448.483 309.611Q448.573 309.985 448.645 310.363Q448.717 310.741 448.77 311.122Q448.823 311.503 448.857 311.886Q448.892 312.27 448.908 312.654Q448.923 313.038 448.92 313.423Q448.917 313.808 448.896 314.192Q448.874 314.576 448.834 314.959Q448.793 315.341 448.734 315.722Q448.675 316.102 448.598 316.479Q448.521 316.856 448.425 317.228Q448.329 317.601 448.215 317.969Q448.102 318.336 447.97 318.698Q447.839 319.059 447.69 319.414Q447.541 319.769 447.375 320.116Q447.209 320.463 447.026 320.802Q446.843 321.14 446.644 321.47Q446.445 321.799 446.23 322.118Q446.016 322.437 445.785 322.746Q445.555 323.054 445.31 323.351Q445.065 323.647 444.806 323.932Q444.547 324.216 444.275 324.488Q444.002 324.759 443.717 325.017Q443.431 325.275 443.133 325.519Q442.836 325.763 442.527 325.992Q442.217 326.221 441.897 326.434Q441.577 326.648 441.247 326.846Q440.917 327.043 440.578 327.225Q440.239 327.406 439.891 327.571Q439.543 327.736 439.188 327.883Q438.832 328.031 438.47 328.161Q438.108 328.291 437.74 328.403Q437.372 328.516 436.999 328.61Q436.626 328.704 436.249 328.78Z"/>
		<path fill="#001D65" transform="matrix(2.28174 0 0 2.28174 0 -584.124)" d="M590.747 328.827Q590.235 328.891 589.72 328.921Q589.204 328.951 588.688 328.946Q588.172 328.942 587.658 328.904Q587.143 328.866 586.632 328.794Q586.121 328.723 585.615 328.617Q585.11 328.512 584.613 328.373Q584.116 328.235 583.629 328.064Q583.142 327.893 582.667 327.691Q582.193 327.488 581.732 327.255Q581.272 327.021 580.828 326.758Q580.384 326.495 579.958 326.203Q579.533 325.912 579.127 325.592Q578.722 325.273 578.338 324.928Q577.954 324.583 577.594 324.213Q577.234 323.843 576.899 323.451Q576.564 323.058 576.256 322.644Q575.948 322.23 575.667 321.797Q575.387 321.364 575.136 320.913Q574.884 320.462 574.663 319.996Q574.442 319.529 574.252 319.049Q574.062 318.57 573.905 318.078Q573.747 317.587 573.622 317.086Q573.496 316.585 573.405 316.078Q573.313 315.57 573.254 315.057Q573.196 314.544 573.172 314.029Q573.147 313.513 573.157 312.997Q573.167 312.481 573.21 311.967Q573.254 311.453 573.331 310.942Q573.408 310.432 573.519 309.928Q573.63 309.424 573.774 308.928Q573.917 308.433 574.093 307.948Q574.269 307.462 574.477 306.99Q574.685 306.517 574.923 306.06Q575.161 305.602 575.429 305.161Q575.697 304.719 575.993 304.297Q576.29 303.874 576.613 303.472Q576.937 303.07 577.286 302.69Q577.635 302.31 578.009 301.954Q578.382 301.598 578.779 301.267Q579.175 300.937 579.592 300.633Q580.009 300.329 580.445 300.053Q580.882 299.777 581.335 299.531Q581.789 299.284 582.257 299.068Q582.726 298.852 583.208 298.667Q583.69 298.483 584.183 298.33Q584.676 298.177 585.178 298.058Q585.68 297.938 586.189 297.851Q586.698 297.765 587.211 297.712Q587.591 297.673 587.972 297.652Q588.353 297.632 588.735 297.63Q589.117 297.628 589.498 297.645Q589.88 297.662 590.26 297.697Q590.64 297.732 591.018 297.786Q591.396 297.84 591.771 297.912Q592.146 297.984 592.517 298.074Q592.888 298.165 593.254 298.273Q593.62 298.381 593.98 298.507Q594.341 298.633 594.694 298.777Q595.048 298.92 595.395 299.081Q595.741 299.241 596.079 299.418Q596.417 299.595 596.747 299.789Q597.076 299.982 597.395 300.192Q597.714 300.401 598.023 300.625Q598.332 300.85 598.629 301.089Q598.927 301.329 599.212 301.582Q599.498 301.836 599.77 302.103Q600.043 302.37 600.302 302.65Q600.562 302.931 600.807 303.223Q601.053 303.515 601.284 303.819Q601.514 304.124 601.73 304.439Q601.946 304.753 602.146 305.079Q602.346 305.404 602.53 305.738Q602.715 306.073 602.882 306.416Q603.05 306.759 603.2 307.109Q603.351 307.46 603.484 307.818Q603.618 308.176 603.734 308.54Q603.849 308.903 603.947 309.272Q604.045 309.641 604.125 310.015Q604.205 310.388 604.266 310.765Q604.328 311.142 604.371 311.521Q604.414 311.9 604.439 312.281Q604.463 312.662 604.469 313.044Q604.475 313.426 604.462 313.807Q604.45 314.189 604.418 314.569Q604.387 314.95 604.337 315.328Q604.288 315.707 604.22 316.082Q604.151 316.458 604.065 316.83Q603.979 317.202 603.874 317.569Q603.77 317.936 603.648 318.298Q603.526 318.66 603.386 319.015Q603.246 319.37 603.09 319.718Q602.933 320.066 602.76 320.406Q602.586 320.747 602.396 321.078Q602.206 321.409 602 321.73Q601.794 322.052 601.573 322.363Q601.352 322.674 601.116 322.974Q600.88 323.274 600.629 323.562Q600.379 323.85 600.115 324.126Q599.85 324.401 599.573 324.664Q599.296 324.926 599.006 325.175Q598.716 325.423 598.414 325.657Q598.113 325.891 597.8 326.111Q597.488 326.33 597.165 326.533Q596.842 326.737 596.509 326.925Q596.177 327.112 595.836 327.283Q595.495 327.455 595.145 327.609Q594.796 327.763 594.44 327.901Q594.084 328.038 593.721 328.158Q593.359 328.277 592.991 328.379Q592.623 328.481 592.25 328.565Q591.878 328.649 591.502 328.714Q591.126 328.78 590.747 328.827Z"/>
	</g>
</svg>
